<svg xmlns="http://www.w3.org/2000/svg" viewBox="0 0 72 72"><defs><style>.a{fill:#df50ca;}</style></defs><title>icon-dribbble</title><path class="a" d="M36,0A36,36,0,1,0,72,36,36,36,0,0,0,36,0h0ZM58.06,18.66a27.89,27.89,0,0,1,6,16A55.4,55.4,0,0,0,52.56,33.4h0a46.76,46.76,0,0,0-8.14.71c-0.62-1.51-1.25-3-1.88-4.37A43.81,43.81,0,0,0,58.06,18.66h0ZM36,7.91a27.9,27.9,0,0,1,17.51,6.17,36.41,36.41,0,0,1-13.79,9.86A98.91,98.91,0,0,0,30,8.59a27.34,27.34,0,0,1,6-.67h0ZM23.59,10.84a86.13,86.13,0,0,1,10,15.27,81.21,81.21,0,0,1-22.18,3.12H11c-0.87,0-1.62,0-2.24,0A28.17,28.17,0,0,1,23.59,10.84h0ZM7.91,36c0-.13,0-0.27,0-0.4,0.8,0,1.83.05,3.07,0.05h0A88.34,88.34,0,0,0,36.49,32c0.55,1.19,1.08,2.43,1.62,3.72A44.46,44.46,0,0,0,22.3,45a48,48,0,0,0-7.75,9A27.92,27.92,0,0,1,7.91,36h0ZM36,64.09a27.9,27.9,0,0,1-16.69-5.54,40.71,40.71,0,0,1,6.52-8A38.23,38.23,0,0,1,40.42,41.7,138.24,138.24,0,0,1,46,62.25a27.9,27.9,0,0,1-10,1.84h0Zm15.89-5a145,145,0,0,0-5.18-18.87,40.41,40.41,0,0,1,5.76-.41h0.08a49.84,49.84,0,0,1,11,1.32,28.05,28.05,0,0,1-11.68,18h0Zm0,0"/></svg>